<svg xmlns="http://www.w3.org/2000/svg" viewBox="0 0 1600 1000" width="1600" height="1000"><g id="noddle-diagram-baked"><defs><marker id="diagram-arrow-end" viewBox="0 0 10 10" refX="9" refY="5" markerWidth="7" markerHeight="7" orient="auto-start-reverse" markerUnits="userSpaceOnUse"><path d="M 0 0 L 10 5 L 0 10 z" fill="#475569" /></marker><marker id="diagram-arrow-start" viewBox="0 0 10 10" refX="1" refY="5" markerWidth="7" markerHeight="7" orient="auto-start-reverse" markerUnits="userSpaceOnUse"><path d="M 10 0 L 0 5 L 10 10 z" fill="#475569" /></marker><filter id="noddle-sketch" x="-5%" y="-5%" width="110%" height="110%" /></defs><g style="cursor: pointer;"><path d="M 800 130 L 800 216 L 190 216 L 190 240" fill="none" stroke="transparent" stroke-width="12" vector-effect="non-scaling-stroke" /><path id="edge-vis-ce1" d="M 800 130 L 800 216 L 190 216 L 190 240" fill="none" stroke="#475569" stroke-width="2" marker-end="url(#diagram-arrow-end)" /></g><g style="cursor: pointer;"><path d="M 800 130 L 800 216 L 560 216 L 560 240" fill="none" stroke="transparent" stroke-width="12" vector-effect="non-scaling-stroke" /><path id="edge-vis-ce2" d="M 800 130 L 800 216 L 560 216 L 560 240" fill="none" stroke="#475569" stroke-width="2" marker-end="url(#diagram-arrow-end)" /></g><g style="cursor: pointer;"><path d="M 800 130 L 800 216 L 980 216 L 980 240" fill="none" stroke="transparent" stroke-width="12" vector-effect="non-scaling-stroke" /><path id="edge-vis-ce3" d="M 800 130 L 800 216 L 980 216 L 980 240" fill="none" stroke="#475569" stroke-width="2" marker-end="url(#diagram-arrow-end)" /></g><g style="cursor: pointer;"><path d="M 800 130 L 800 216 L 1400 216 L 1400 240" fill="none" stroke="transparent" stroke-width="12" vector-effect="non-scaling-stroke" /><path id="edge-vis-ce4" d="M 800 130 L 800 216 L 1400 216 L 1400 240" fill="none" stroke="#475569" stroke-width="2" marker-end="url(#diagram-arrow-end)" /></g><g style="cursor: pointer;"><path d="M 190 310 L 190 406 L 110 406 L 110 430" fill="none" stroke="transparent" stroke-width="12" vector-effect="non-scaling-stroke" /><path id="edge-vis-ee1" d="M 190 310 L 190 406 L 110 406 L 110 430" fill="none" stroke="#059669" stroke-width="2" marker-end="url(#diagram-arrow-end)" /></g><g style="cursor: pointer;"><path d="M 190 310 L 190 406 L 16 406 L 16 550 L 40 550" fill="none" stroke="transparent" stroke-width="12" vector-effect="non-scaling-stroke" /><path id="edge-vis-ee2" d="M 190 310 L 190 406 L 16 406 L 16 550 L 40 550" fill="none" stroke="#059669" stroke-width="2" marker-end="url(#diagram-arrow-end)" /></g><g style="cursor: pointer;"><path d="M 190 310 L 190 406 L 16 406 L 16 640 L 40 640" fill="none" stroke="transparent" stroke-width="12" vector-effect="non-scaling-stroke" /><path id="edge-vis-ee3" d="M 190 310 L 190 406 L 16 406 L 16 640 L 40 640" fill="none" stroke="#059669" stroke-width="2" marker-end="url(#diagram-arrow-end)" /></g><g style="cursor: pointer;"><path d="M 190 310 L 190 406 L 270 406 L 270 430" fill="none" stroke="transparent" stroke-width="12" vector-effect="non-scaling-stroke" /><path id="edge-vis-ee4" d="M 190 310 L 190 406 L 270 406 L 270 430" fill="none" stroke="#059669" stroke-width="2" marker-end="url(#diagram-arrow-end)" /></g><g style="cursor: pointer;"><path d="M 190 310 L 190 406 L 364 406 L 364 550 L 340 550" fill="none" stroke="transparent" stroke-width="12" vector-effect="non-scaling-stroke" /><path id="edge-vis-ee5" d="M 190 310 L 190 406 L 364 406 L 364 550 L 340 550" fill="none" stroke="#059669" stroke-width="2" marker-end="url(#diagram-arrow-end)" /></g><g style="cursor: pointer;"><path d="M 190 310 L 190 406 L 364 406 L 364 640 L 340 640" fill="none" stroke="transparent" stroke-width="12" vector-effect="non-scaling-stroke" /><path id="edge-vis-ee6" d="M 190 310 L 190 406 L 364 406 L 364 640 L 340 640" fill="none" stroke="#059669" stroke-width="2" marker-end="url(#diagram-arrow-end)" /></g><g style="cursor: pointer;"><path d="M 560 310 L 560 406 L 530 406 L 530 430" fill="none" stroke="transparent" stroke-width="12" vector-effect="non-scaling-stroke" /><path id="edge-vis-ae1" d="M 560 310 L 560 406 L 530 406 L 530 430" fill="none" stroke="#2563eb" stroke-width="2" marker-end="url(#diagram-arrow-end)" /></g><g style="cursor: pointer;"><path d="M 560 310 L 560 406 L 436 406 L 436 550 L 460 550" fill="none" stroke="transparent" stroke-width="12" vector-effect="non-scaling-stroke" /><path id="edge-vis-ae2" d="M 560 310 L 560 406 L 436 406 L 436 550 L 460 550" fill="none" stroke="#2563eb" stroke-width="2" marker-end="url(#diagram-arrow-end)" /></g><g style="cursor: pointer;"><path d="M 560 310 L 560 406 L 436 406 L 436 640 L 460 640" fill="none" stroke="transparent" stroke-width="12" vector-effect="non-scaling-stroke" /><path id="edge-vis-ae3" d="M 560 310 L 560 406 L 436 406 L 436 640 L 460 640" fill="none" stroke="#2563eb" stroke-width="2" marker-end="url(#diagram-arrow-end)" /></g><g style="cursor: pointer;"><path d="M 560 310 L 560 406 L 690 406 L 690 430" fill="none" stroke="transparent" stroke-width="12" vector-effect="non-scaling-stroke" /><path id="edge-vis-ae4" d="M 560 310 L 560 406 L 690 406 L 690 430" fill="none" stroke="#2563eb" stroke-width="2" marker-end="url(#diagram-arrow-end)" /></g><g style="cursor: pointer;"><path d="M 560 310 L 560 406 L 784 406 L 784 550 L 760 550" fill="none" stroke="transparent" stroke-width="12" vector-effect="non-scaling-stroke" /><path id="edge-vis-ae5" d="M 560 310 L 560 406 L 784 406 L 784 550 L 760 550" fill="none" stroke="#2563eb" stroke-width="2" marker-end="url(#diagram-arrow-end)" /></g><g style="cursor: pointer;"><path d="M 560 310 L 560 406 L 784 406 L 784 640 L 760 640" fill="none" stroke="transparent" stroke-width="12" vector-effect="non-scaling-stroke" /><path id="edge-vis-ae6" d="M 560 310 L 560 406 L 784 406 L 784 640 L 760 640" fill="none" stroke="#2563eb" stroke-width="2" marker-end="url(#diagram-arrow-end)" /></g><g style="cursor: pointer;"><path d="M 980 310 L 980 406 L 950 406 L 950 430" fill="none" stroke="transparent" stroke-width="12" vector-effect="non-scaling-stroke" /><path id="edge-vis-me1" d="M 980 310 L 980 406 L 950 406 L 950 430" fill="none" stroke="#a21caf" stroke-width="2" marker-end="url(#diagram-arrow-end)" /></g><g style="cursor: pointer;"><path d="M 980 310 L 980 406 L 856 406 L 856 550 L 880 550" fill="none" stroke="transparent" stroke-width="12" vector-effect="non-scaling-stroke" /><path id="edge-vis-me2" d="M 980 310 L 980 406 L 856 406 L 856 550 L 880 550" fill="none" stroke="#a21caf" stroke-width="2" marker-end="url(#diagram-arrow-end)" /></g><g style="cursor: pointer;"><path d="M 980 310 L 980 406 L 856 406 L 856 640 L 880 640" fill="none" stroke="transparent" stroke-width="12" vector-effect="non-scaling-stroke" /><path id="edge-vis-me3" d="M 980 310 L 980 406 L 856 406 L 856 640 L 880 640" fill="none" stroke="#a21caf" stroke-width="2" marker-end="url(#diagram-arrow-end)" /></g><g style="cursor: pointer;"><path d="M 980 310 L 980 406 L 1110 406 L 1110 430" fill="none" stroke="transparent" stroke-width="12" vector-effect="non-scaling-stroke" /><path id="edge-vis-me4" d="M 980 310 L 980 406 L 1110 406 L 1110 430" fill="none" stroke="#a21caf" stroke-width="2" marker-end="url(#diagram-arrow-end)" /></g><g style="cursor: pointer;"><path d="M 980 310 L 980 406 L 1204 406 L 1204 550 L 1180 550" fill="none" stroke="transparent" stroke-width="12" vector-effect="non-scaling-stroke" /><path id="edge-vis-me5" d="M 980 310 L 980 406 L 1204 406 L 1204 550 L 1180 550" fill="none" stroke="#a21caf" stroke-width="2" marker-end="url(#diagram-arrow-end)" /></g><g style="cursor: pointer;"><path d="M 980 310 L 980 406 L 1204 406 L 1204 640 L 1180 640" fill="none" stroke="transparent" stroke-width="12" vector-effect="non-scaling-stroke" /><path id="edge-vis-me6" d="M 980 310 L 980 406 L 1204 406 L 1204 640 L 1180 640" fill="none" stroke="#a21caf" stroke-width="2" marker-end="url(#diagram-arrow-end)" /></g><g style="cursor: pointer;"><path d="M 1400 310 L 1400 406 L 1370 406 L 1370 430" fill="none" stroke="transparent" stroke-width="12" vector-effect="non-scaling-stroke" /><path id="edge-vis-pe1" d="M 1400 310 L 1400 406 L 1370 406 L 1370 430" fill="none" stroke="#ca8a04" stroke-width="2" marker-end="url(#diagram-arrow-end)" /></g><g style="cursor: pointer;"><path d="M 1400 310 L 1400 406 L 1276 406 L 1276 550 L 1300 550" fill="none" stroke="transparent" stroke-width="12" vector-effect="non-scaling-stroke" /><path id="edge-vis-pe2" d="M 1400 310 L 1400 406 L 1276 406 L 1276 550 L 1300 550" fill="none" stroke="#ca8a04" stroke-width="2" marker-end="url(#diagram-arrow-end)" /></g><g style="cursor: pointer;"><path d="M 1400 310 L 1400 406 L 1276 406 L 1276 640 L 1300 640" fill="none" stroke="transparent" stroke-width="12" vector-effect="non-scaling-stroke" /><path id="edge-vis-pe3" d="M 1400 310 L 1400 406 L 1276 406 L 1276 640 L 1300 640" fill="none" stroke="#ca8a04" stroke-width="2" marker-end="url(#diagram-arrow-end)" /></g><g style="cursor: pointer;"><path d="M 1400 310 L 1400 406 L 1530 406 L 1530 430" fill="none" stroke="transparent" stroke-width="12" vector-effect="non-scaling-stroke" /><path id="edge-vis-pe4" d="M 1400 310 L 1400 406 L 1530 406 L 1530 430" fill="none" stroke="#ca8a04" stroke-width="2" marker-end="url(#diagram-arrow-end)" /></g><g style="cursor: pointer;"><path d="M 1400 310 L 1400 406 L 1624 406 L 1624 550 L 1600 550" fill="none" stroke="transparent" stroke-width="12" vector-effect="non-scaling-stroke" /><path id="edge-vis-pe5" d="M 1400 310 L 1400 406 L 1624 406 L 1624 550 L 1600 550" fill="none" stroke="#ca8a04" stroke-width="2" marker-end="url(#diagram-arrow-end)" /></g><g style="cursor: pointer;"><path d="M 1400 310 L 1400 406 L 1624 406 L 1624 640 L 1600 640" fill="none" stroke="transparent" stroke-width="12" vector-effect="non-scaling-stroke" /><path id="edge-vis-pe6" d="M 1400 310 L 1400 406 L 1624 406 L 1624 640 L 1600 640" fill="none" stroke="#ca8a04" stroke-width="2" marker-end="url(#diagram-arrow-end)" /></g><g style="cursor: move;"><g><g><rect x="715" y="60" width="170" height="70" rx="8" ry="8" fill="#f4f0ff" stroke="#7c3aed" stroke-width="2" /></g><text x="800" y="95" text-anchor="middle" dominant-baseline="central" font-size="14" fill="#1a1d23" style="pointer-events: none; user-select: none;">VP of Data</text></g></g><g style="cursor: move;"><g><g><rect x="110" y="240" width="160" height="70" rx="8" ry="8" fill="#eef4ff" stroke="#7c3aed" stroke-width="2" /></g><text x="190" y="275" text-anchor="middle" dominant-baseline="central" font-size="14" fill="#1a1d23" style="pointer-events: none; user-select: none;">Data Eng Manager</text></g></g><g style="cursor: move;"><g><g><rect x="480" y="240" width="160" height="70" rx="8" ry="8" fill="#eef4ff" stroke="#7c3aed" stroke-width="2" /></g><text x="560" y="275" text-anchor="middle" dominant-baseline="central" font-size="14" fill="#1a1d23" style="pointer-events: none; user-select: none;">Analytics Manager</text></g></g><g style="cursor: move;"><g><g><rect x="900" y="240" width="160" height="70" rx="8" ry="8" fill="#eef4ff" stroke="#7c3aed" stroke-width="2" /></g><text x="980" y="275" text-anchor="middle" dominant-baseline="central" font-size="14" fill="#1a1d23" style="pointer-events: none; user-select: none;">DS/ML Manager</text></g></g><g style="cursor: move;"><g><g><rect x="1320" y="240" width="160" height="70" rx="8" ry="8" fill="#eef4ff" stroke="#7c3aed" stroke-width="2" /></g><text x="1400" y="275" text-anchor="middle" dominant-baseline="central" font-size="14" fill="#1a1d23" style="pointer-events: none; user-select: none;">Platform Manager</text></g></g><g style="cursor: move;"><g><g><rect x="40" y="430" width="140" height="60" fill="#ecfdf5" stroke="#059669" stroke-width="2" /></g><text x="110" y="460" text-anchor="middle" dominant-baseline="central" font-size="14" fill="#1a1d23" style="pointer-events: none; user-select: none;">Data Engineer</text></g></g><g style="cursor: move;"><g><g><rect x="40" y="520" width="140" height="60" fill="#ecfdf5" stroke="#059669" stroke-width="2" /></g><text x="110" y="550" text-anchor="middle" dominant-baseline="central" font-size="14" fill="#1a1d23" style="pointer-events: none; user-select: none;">Data Engineer</text></g></g><g style="cursor: move;"><g><g><rect x="40" y="610" width="140" height="60" fill="#ecfdf5" stroke="#059669" stroke-width="2" /></g><text x="110" y="640" text-anchor="middle" dominant-baseline="central" font-size="14" fill="#1a1d23" style="pointer-events: none; user-select: none;">Data Engineer</text></g></g><g style="cursor: move;"><g><g><rect x="200" y="430" width="140" height="60" fill="#ecfdf5" stroke="#059669" stroke-width="2" /></g><text x="270" y="460" text-anchor="middle" dominant-baseline="central" font-size="14" fill="#1a1d23" style="pointer-events: none; user-select: none;">Sr Data Engineer</text></g></g><g style="cursor: move;"><g><g><rect x="200" y="520" width="140" height="60" fill="#ecfdf5" stroke="#059669" stroke-width="2" /></g><text x="270" y="550" text-anchor="middle" dominant-baseline="central" font-size="14" fill="#1a1d23" style="pointer-events: none; user-select: none;">ETL Engineer</text></g></g><g style="cursor: move;"><g><g><rect x="200" y="610" width="140" height="60" fill="#ecfdf5" stroke="#059669" stroke-width="2" /></g><text x="270" y="640" text-anchor="middle" dominant-baseline="central" font-size="14" fill="#1a1d23" style="pointer-events: none; user-select: none;">ETL Engineer</text></g></g><g style="cursor: move;"><g><g><rect x="460" y="430" width="140" height="60" fill="#eff6ff" stroke="#2563eb" stroke-width="2" /></g><text x="530" y="460" text-anchor="middle" dominant-baseline="central" font-size="14" fill="#1a1d23" style="pointer-events: none; user-select: none;">Data Analyst</text></g></g><g style="cursor: move;"><g><g><rect x="460" y="520" width="140" height="60" fill="#eff6ff" stroke="#2563eb" stroke-width="2" /></g><text x="530" y="550" text-anchor="middle" dominant-baseline="central" font-size="14" fill="#1a1d23" style="pointer-events: none; user-select: none;">Data Analyst</text></g></g><g style="cursor: move;"><g><g><rect x="460" y="610" width="140" height="60" fill="#eff6ff" stroke="#2563eb" stroke-width="2" /></g><text x="530" y="640" text-anchor="middle" dominant-baseline="central" font-size="14" fill="#1a1d23" style="pointer-events: none; user-select: none;">BI Analyst</text></g></g><g style="cursor: move;"><g><g><rect x="620" y="430" width="140" height="60" fill="#eff6ff" stroke="#2563eb" stroke-width="2" /></g><text x="690" y="460" text-anchor="middle" dominant-baseline="central" font-size="14" fill="#1a1d23" style="pointer-events: none; user-select: none;">BI Analyst</text></g></g><g style="cursor: move;"><g><g><rect x="620" y="520" width="140" height="60" fill="#eff6ff" stroke="#2563eb" stroke-width="2" /></g><text x="690" y="550" text-anchor="middle" dominant-baseline="central" font-size="14" fill="#1a1d23" style="pointer-events: none; user-select: none;">Sr Analyst</text></g></g><g style="cursor: move;"><g><g><rect x="620" y="610" width="140" height="60" fill="#eff6ff" stroke="#2563eb" stroke-width="2" /></g><text x="690" y="640" text-anchor="middle" dominant-baseline="central" font-size="14" fill="#1a1d23" style="pointer-events: none; user-select: none;">Analytics Eng</text></g></g><g style="cursor: move;"><g><g><rect x="880" y="430" width="140" height="60" fill="#fdf4ff" stroke="#a21caf" stroke-width="2" /></g><text x="950" y="460" text-anchor="middle" dominant-baseline="central" font-size="14" fill="#1a1d23" style="pointer-events: none; user-select: none;">Data Scientist</text></g></g><g style="cursor: move;"><g><g><rect x="880" y="520" width="140" height="60" fill="#fdf4ff" stroke="#a21caf" stroke-width="2" /></g><text x="950" y="550" text-anchor="middle" dominant-baseline="central" font-size="14" fill="#1a1d23" style="pointer-events: none; user-select: none;">Data Scientist</text></g></g><g style="cursor: move;"><g><g><rect x="880" y="610" width="140" height="60" fill="#fdf4ff" stroke="#a21caf" stroke-width="2" /></g><text x="950" y="640" text-anchor="middle" dominant-baseline="central" font-size="14" fill="#1a1d23" style="pointer-events: none; user-select: none;">ML Engineer</text></g></g><g style="cursor: move;"><g><g><rect x="1040" y="430" width="140" height="60" fill="#fdf4ff" stroke="#a21caf" stroke-width="2" /></g><text x="1110" y="460" text-anchor="middle" dominant-baseline="central" font-size="14" fill="#1a1d23" style="pointer-events: none; user-select: none;">ML Engineer</text></g></g><g style="cursor: move;"><g><g><rect x="1040" y="520" width="140" height="60" fill="#fdf4ff" stroke="#a21caf" stroke-width="2" /></g><text x="1110" y="550" text-anchor="middle" dominant-baseline="central" font-size="14" fill="#1a1d23" style="pointer-events: none; user-select: none;">Sr Data Scientist</text></g></g><g style="cursor: move;"><g><g><rect x="1040" y="610" width="140" height="60" fill="#fdf4ff" stroke="#a21caf" stroke-width="2" /></g><text x="1110" y="640" text-anchor="middle" dominant-baseline="central" font-size="14" fill="#1a1d23" style="pointer-events: none; user-select: none;">MLOps Eng</text></g></g><g style="cursor: move;"><g><g><rect x="1300" y="430" width="140" height="60" fill="#fefce8" stroke="#ca8a04" stroke-width="2" /></g><text x="1370" y="460" text-anchor="middle" dominant-baseline="central" font-size="14" fill="#1a1d23" style="pointer-events: none; user-select: none;">Platform Eng</text></g></g><g style="cursor: move;"><g><g><rect x="1300" y="520" width="140" height="60" fill="#fefce8" stroke="#ca8a04" stroke-width="2" /></g><text x="1370" y="550" text-anchor="middle" dominant-baseline="central" font-size="14" fill="#1a1d23" style="pointer-events: none; user-select: none;">Platform Eng</text></g></g><g style="cursor: move;"><g><g><rect x="1300" y="610" width="140" height="60" fill="#fefce8" stroke="#ca8a04" stroke-width="2" /></g><text x="1370" y="640" text-anchor="middle" dominant-baseline="central" font-size="14" fill="#1a1d23" style="pointer-events: none; user-select: none;">DevOps Eng</text></g></g><g style="cursor: move;"><g><g><rect x="1460" y="430" width="140" height="60" fill="#fefce8" stroke="#ca8a04" stroke-width="2" /></g><text x="1530" y="460" text-anchor="middle" dominant-baseline="central" font-size="14" fill="#1a1d23" style="pointer-events: none; user-select: none;">Data Steward</text></g></g><g style="cursor: move;"><g><g><rect x="1460" y="520" width="140" height="60" fill="#fefce8" stroke="#ca8a04" stroke-width="2" /></g><text x="1530" y="550" text-anchor="middle" dominant-baseline="central" font-size="14" fill="#1a1d23" style="pointer-events: none; user-select: none;">Gov Analyst</text></g></g><g style="cursor: move;"><g><g><rect x="1460" y="610" width="140" height="60" fill="#fefce8" stroke="#ca8a04" stroke-width="2" /></g><text x="1530" y="640" text-anchor="middle" dominant-baseline="central" font-size="14" fill="#1a1d23" style="pointer-events: none; user-select: none;">SRE</text></g></g></g></svg>