<svg xmlns="http://www.w3.org/2000/svg" viewBox="0 0 1600 1000" width="1600" height="1000"><g id="noddle-diagram-baked"><line x1="220.0" y1="435.0" x2="515.0" y2="435.0" stroke="#475569" stroke-width="2.0" /><line x1="515.0" y1="435.0" x2="815.0" y2="295.0" stroke="#475569" stroke-width="2.0" /><line x1="515.0" y1="435.0" x2="815.0" y2="575.0" stroke="#475569" stroke-width="2.0" /><line x1="815.0" y1="295.0" x2="1115.0" y2="295.0" stroke="#475569" stroke-width="2.0" /><line x1="1115.0" y1="295.0" x2="1410.0" y2="300.0" stroke="#475569" stroke-width="2.0" /><ellipse cx="220.0" cy="435.0" rx="60.0" ry="35.0" fill="#eef4ff" stroke="#2563eb" stroke-width="2.0" /><text x="220.0" y="435.0" text-anchor="middle" dominant-baseline="central" font-family="sans-serif" font-size="13" fill="#1a1d23">User</text><rect x="440.0" y="400.0" width="150.0" height="70.0" rx="8" ry="8" fill="#f0fdf4" stroke="#16a34a" stroke-width="2.0" /><text x="515.0" y="435.0" text-anchor="middle" dominant-baseline="central" font-family="sans-serif" font-size="13" fill="#1a1d23">CDN / WAF</text><rect x="740.0" y="260.0" width="150.0" height="70.0" rx="8" ry="8" fill="#f0fdf4" stroke="#16a34a" stroke-width="2.0" /><text x="815.0" y="295.0" text-anchor="middle" dominant-baseline="central" font-family="sans-serif" font-size="13" fill="#1a1d23">API Gateway</text><rect x="1040.0" y="260.0" width="150.0" height="70.0" rx="8" ry="8" fill="#f0fdf4" stroke="#16a34a" stroke-width="2.0" /><text x="1115.0" y="295.0" text-anchor="middle" dominant-baseline="central" font-family="sans-serif" font-size="13" fill="#1a1d23">App Service</text><rect x="740.0" y="540.0" width="150.0" height="70.0" rx="8" ry="8" fill="#f0fdf4" stroke="#16a34a" stroke-width="2.0" /><text x="815.0" y="575.0" text-anchor="middle" dominant-baseline="central" font-family="sans-serif" font-size="13" fill="#1a1d23">Static assets</text><rect x="1340.0" y="260.0" width="140.0" height="80.0" rx="8" ry="8" fill="#fffbeb" stroke="#d97706" stroke-width="2.0" /><text x="1410.0" y="300.0" text-anchor="middle" dominant-baseline="central" font-family="sans-serif" font-size="13" fill="#1a1d23">Database</text></g></svg>