<svg xmlns="http://www.w3.org/2000/svg" viewBox="0 0 1600 1000" width="1600" height="1000"><g id="noddle-diagram-baked"><rect x="86.0" y="150.0" width="328.0" height="690.0" rx="8" ry="8" fill="#fef2f2" stroke="#fecaca" stroke-width="1.5" /><rect x="430.0" y="150.0" width="328.0" height="690.0" rx="8" ry="8" fill="#eff6ff" stroke="#bfdbfe" stroke-width="1.5" /><rect x="774.0" y="150.0" width="328.0" height="690.0" rx="8" ry="8" fill="#f0fdf4" stroke="#bbf7d0" stroke-width="1.5" /><rect x="100.0" y="40.0" width="988.0" height="80.0" rx="8" ry="8" fill="#ede9fe" stroke="#7c3aed" stroke-width="2.5" /><text x="594.0" y="80.0" text-anchor="middle" dominant-baseline="central" font-family="sans-serif" font-size="13" fill="#1a1d23">🎭  Sprint Retro · Mad </text><rect x="100.0" y="862.0" width="988.0" height="56.0" rx="8" ry="8" fill="#f8fafc" stroke="#94a3b8" stroke-width="1.5" /><text x="594.0" y="890.0" text-anchor="middle" dominant-baseline="central" font-family="sans-serif" font-size="13" fill="#1a1d23">🌿 Kéo thả để thêm stic</text><rect x="100.0" y="168.0" width="300.0" height="60.0" rx="8" ry="8" fill="#fecaca" stroke="#dc2626" stroke-width="2.0" /><text x="250.0" y="198.0" text-anchor="middle" dominant-baseline="central" font-family="sans-serif" font-size="13" fill="#1a1d23">😠  Mad</text><rect x="112.0" y="254.0" width="276.0" height="148.0" rx="8" ry="8" fill="#fee2e2" stroke="#dc2626" stroke-width="1.5" /><text x="250.0" y="328.0" text-anchor="middle" dominant-baseline="central" font-family="sans-serif" font-size="13" fill="#1a1d23">Điều khiến bạn bực mìn</text><rect x="112.0" y="424.0" width="276.0" height="148.0" rx="8" ry="8" fill="#fee2e2" stroke="#dc2626" stroke-width="1.5" /><text x="250.0" y="498.0" text-anchor="middle" dominant-baseline="central" font-family="sans-serif" font-size="13" fill="#1a1d23">Trở ngại lặp đi lặp lạ</text><rect x="444.0" y="168.0" width="300.0" height="60.0" rx="8" ry="8" fill="#bfdbfe" stroke="#2563eb" stroke-width="2.0" /><text x="594.0" y="198.0" text-anchor="middle" dominant-baseline="central" font-family="sans-serif" font-size="13" fill="#1a1d23">😢  Sad</text><rect x="456.0" y="254.0" width="276.0" height="148.0" rx="8" ry="8" fill="#dbeafe" stroke="#2563eb" stroke-width="1.5" /><text x="594.0" y="328.0" text-anchor="middle" dominant-baseline="central" font-family="sans-serif" font-size="13" fill="#1a1d23">Điều khiến bạn tiếc nu</text><rect x="456.0" y="424.0" width="276.0" height="148.0" rx="8" ry="8" fill="#dbeafe" stroke="#2563eb" stroke-width="1.5" /><text x="594.0" y="498.0" text-anchor="middle" dominant-baseline="central" font-family="sans-serif" font-size="13" fill="#1a1d23">Kỳ vọng chưa đạt được…</text><rect x="788.0" y="168.0" width="300.0" height="60.0" rx="8" ry="8" fill="#bbf7d0" stroke="#16a34a" stroke-width="2.0" /><text x="938.0" y="198.0" text-anchor="middle" dominant-baseline="central" font-family="sans-serif" font-size="13" fill="#1a1d23">😀  Glad</text><rect x="800.0" y="254.0" width="276.0" height="148.0" rx="8" ry="8" fill="#dcfce7" stroke="#16a34a" stroke-width="1.5" /><text x="938.0" y="328.0" text-anchor="middle" dominant-baseline="central" font-family="sans-serif" font-size="13" fill="#1a1d23">Điều khiến bạn vui…</text><rect x="800.0" y="424.0" width="276.0" height="148.0" rx="8" ry="8" fill="#dcfce7" stroke="#16a34a" stroke-width="1.5" /><text x="938.0" y="498.0" text-anchor="middle" dominant-baseline="central" font-family="sans-serif" font-size="13" fill="#1a1d23">Thành công đáng ăn mừn</text></g></svg>